# xmcd
#
# Track frame offsets:
#	183
#	18325
#	35268
#	49890
#	69485
#	88930
#	118445
#	135208
#	157913
#	170700
#	183975
#	200670
#	218473
#
# Disc length: 3227 seconds
#
# Revision: 7
# Processed by: cddbd v1.5.2PL0 Copyright (c) Steve Scherf et al.
# Submitted via: audiograbber 1.83.01
#
DISCID=b20c990d
DTITLE=Manhattan Transfer,The - Live
DYEAR=1987
DGENRE=Jazz Vocal
TTITLE0=Four Brothers
TTITLE1=Rambo
TTITLE2=Meet Benny Bailey
TTITLE3=Airegin
TTITLE4=To You
TTITLE5=Sing Joy Spring
TTITLE6=Move
TTITLE7=That's Killer Joe
TTITLE8=The Duke Of Dubuque
TTITLE9=Gloria
TTITLE10=On The Boulevard
TTITLE11=Shaker Song
TTITLE12=Ray's Rockhouse
EXTD=Recorde live at Nakano Sun Plaza Hall, Tokyo on February 20 and 21, 1986\nPr
EXTD=oduced by Tim Hauser 
EXTT0=
EXTT1=
EXTT2=
EXTT3=
EXTT4=
EXTT5=
EXTT6=
EXTT7=
EXTT8=
EXTT9=
EXTT10=
EXTT11=
EXTT12=
PLAYORDER=
